<svg width="14" height="15" viewBox="0 0 14 15" fill="none" xmlns="http://www.w3.org/2000/svg">
<path d="M3.63543 1.47196C3.63543 1.0213 4.00657 0.623653 4.48374 0.623653C4.9344 0.623653 5.33205 1.0213 5.33205 1.47196V2.32027H8.72529V1.47196C8.72529 1.0213 9.09643 0.623653 9.5736 0.623653C10.0243 0.623653 10.4219 1.0213 10.4219 1.47196V2.32027H11.6944C12.3836 2.32027 12.9668 2.90349 12.9668 3.59274V4.86521H1.0905V3.59274C1.0905 2.90349 1.6472 2.32027 2.36296 2.32027H3.63543V1.47196ZM12.9668 5.71352V12.9242C12.9668 13.6399 12.3836 14.1966 11.6944 14.1966H2.36296C1.6472 14.1966 1.0905 13.6399 1.0905 12.9242V5.71352H12.9668Z" fill="#386CE5"/>
</svg>
