<svg width="16" height="15" viewBox="0 0 16 15" fill="none" xmlns="http://www.w3.org/2000/svg">
<path d="M7.78648 1.47196C9.90726 1.47196 11.6304 2.45282 12.8763 3.61925C14.1223 4.75917 14.9441 6.13767 15.3417 7.09202C15.4213 7.3041 15.4213 7.54269 15.3417 7.75476C14.9441 8.6826 14.1223 10.0611 12.8763 11.2275C11.6304 12.394 9.90726 13.3483 7.78648 13.3483C5.6392 13.3483 3.91607 12.394 2.67011 11.2275C1.42416 10.0611 0.602354 8.6826 0.204709 7.75476C0.12518 7.54269 0.12518 7.3041 0.204709 7.09202C0.602354 6.13767 1.42416 4.75917 2.67011 3.61925C3.91607 2.45282 5.6392 1.47196 7.78648 1.47196ZM3.96909 7.41014C3.96909 8.78864 4.68485 10.0346 5.87779 10.7238C7.04421 11.4131 8.50225 11.4131 9.69518 10.7238C10.8616 10.0346 11.6039 8.78864 11.6039 7.41014C11.6039 6.05814 10.8616 4.81219 9.69518 4.12293C8.50225 3.43368 7.04421 3.43368 5.87779 4.12293C4.68485 4.81219 3.96909 6.05814 3.96909 7.41014ZM7.78648 5.71352C7.78648 5.52795 7.73346 5.36889 7.68044 5.18332C7.62743 5.05077 7.73346 4.86521 7.89252 4.86521C8.95291 4.91823 9.93377 5.6605 10.2254 6.7739C10.5965 8.1259 9.80122 9.5044 8.42272 9.87554C7.07072 10.2467 5.66571 9.42487 5.32108 8.07288C5.26806 7.88731 5.24155 7.70174 5.24155 7.54269C5.21504 7.38363 5.40061 7.27759 5.53316 7.33061C5.71873 7.38363 5.87779 7.41014 6.08986 7.41014C7.0177 7.41014 7.78648 6.66787 7.78648 5.71352Z" fill="#161616"/>
</svg>
