<svg width="111" height="121" viewBox="0 0 111 121" fill="none" xmlns="http://www.w3.org/2000/svg">
<rect width="110.432" height="120.116" rx="30.5319" fill="#252525"/>
<path d="M55.2162 30.5319C41.4636 30.5319 30.532 41.4635 30.532 55.2161C30.532 69.6224 47.0113 84.0287 53.0404 88.8172C54.3195 89.8331 56.1202 89.8406 57.407 88.8344C63.4483 84.1105 79.9004 69.8984 79.9004 55.2161C79.9004 41.4635 68.9688 30.5319 55.2162 30.5319ZM55.2162 65.7951C49.2215 65.7951 44.6372 60.8582 44.6372 55.2161C44.6372 49.2214 49.2215 44.6372 55.2162 44.6372C61.2109 44.6372 65.7951 49.2214 65.7951 55.2161C65.7951 60.8582 61.2109 65.7951 55.2162 65.7951Z" fill="white"/>
</svg>
