<svg width="15" height="15" viewBox="0 0 15 15" fill="none" xmlns="http://www.w3.org/2000/svg">
<path d="M6.65916 3.08906C7.0303 4.22897 6.65916 5.3954 5.78434 5.6605C4.93603 5.9521 3.92866 5.26285 3.55753 4.12293C3.18639 2.98302 3.55753 1.81659 4.43235 1.55149C5.28066 1.25989 6.28803 1.94914 6.65916 3.08906ZM3.31894 5.89908C3.82262 6.74739 3.69007 7.75476 3.05384 8.1259C2.3911 8.49703 1.46326 8.09939 0.959575 7.25108C0.455891 6.37626 0.58844 5.3954 1.22467 5.02426C1.88742 4.65313 2.81525 5.05077 3.31894 5.89908ZM2.49714 11.2806C3.87564 7.51618 6.34105 6.56183 7.45445 6.56183C8.54135 6.56183 11.0068 7.51618 12.3853 11.2806C12.4913 11.5191 12.5443 11.8107 12.5443 12.0758V12.1289C12.5443 12.8181 11.9876 13.3483 11.2984 13.3483C10.9802 13.3483 10.6886 13.3218 10.397 13.2423L8.06418 12.6591C7.66653 12.553 7.24237 12.553 6.81822 12.6591L4.48537 13.2423C4.19376 13.3218 3.90215 13.3483 3.58404 13.3483C2.89478 13.3483 2.36459 12.8181 2.36459 12.1289V12.0758C2.36459 11.8107 2.3911 11.5191 2.49714 11.2806ZM11.8286 8.1259C11.1923 7.75476 11.0598 6.74739 11.5635 5.89908C12.0671 5.05077 12.995 4.65313 13.6577 5.02426C14.294 5.3954 14.4265 6.37626 13.9228 7.25108C13.4191 8.09939 12.4913 8.49703 11.8286 8.1259ZM8.88598 5.6605C8.01116 5.3954 7.64002 4.22897 8.01116 3.08906C8.38229 1.94914 9.38966 1.25989 10.238 1.55149C11.1128 1.81659 11.4839 2.98302 11.1128 4.12293C10.7417 5.26285 9.73429 5.9521 8.88598 5.6605Z" fill="#386CE5"/>
</svg>
