<svg width="111" height="115" viewBox="0 0 111 115" fill="none" xmlns="http://www.w3.org/2000/svg">
<rect width="110.923" height="114.495" rx="30.5319" fill="#252525"/>
<path d="M71.6238 59.1155C67.2649 54.7798 61.4783 52.392 55.3301 52.392C49.1519 52.392 43.3436 54.7979 38.975 59.1664C34.6064 63.5351 32.2006 69.3434 32.2006 75.5216V76.1677C32.2006 78.9353 33.6192 81.4323 35.9956 82.8474C38.3792 84.2668 41.2609 84.324 43.7035 83C47.0133 81.2063 50.9361 80.2968 55.3628 80.2968C59.7262 80.2968 63.6149 81.2077 66.9208 83.0042C68.0985 83.6441 69.3773 83.963 70.6538 83.963C72.0339 83.963 73.4112 83.5901 74.6533 82.8469C77.0382 81.42 78.4533 78.9082 78.4386 76.1275L78.4347 75.373C78.4017 69.2249 75.9828 63.4512 71.6238 59.1155Z" fill="white"/>
<path d="M55.357 48.9064C57.4335 48.9064 59.3601 47.8986 60.7821 46.0686C62.113 44.3558 62.8459 42.1008 62.8459 39.7191C62.8459 37.3375 62.113 35.0824 60.7821 33.3697C59.3601 31.5397 57.4335 30.5319 55.357 30.5319C53.2805 30.5319 51.354 31.5397 49.932 33.3697C48.6011 35.0824 47.8682 37.3375 47.8682 39.7191C47.8682 42.1008 48.6011 44.3558 49.932 46.0686C51.3539 47.8985 53.2805 48.9064 55.357 48.9064Z" fill="white"/>
<path d="M79.5938 40.6393C78.6603 38.5181 77.037 37.0714 75.023 36.5656C73.0097 36.06 70.8951 36.5682 69.0703 37.9967C67.3624 39.3339 66.1023 41.3424 65.5221 43.6524C64.9421 45.9624 65.1039 48.3281 65.9775 50.3134C66.911 52.4346 68.5343 53.8813 70.5483 54.3871C71.0564 54.5147 71.5709 54.5776 72.0855 54.5776C73.6104 54.5776 75.1367 54.024 76.501 52.9559C78.2089 51.6188 79.4692 49.6102 80.0492 47.3003H80.0493C80.6291 44.9902 80.4674 42.6247 79.5938 40.6393Z" fill="white"/>
<path d="M34.4219 52.956C35.7864 54.0241 37.3123 54.5777 38.8375 54.5777C39.352 54.5777 39.8667 54.5146 40.3748 54.3871C42.3887 53.8813 44.012 52.4346 44.9454 50.3134C45.8191 48.3281 45.9809 45.9625 45.4007 43.6524C44.8207 41.3425 43.5606 39.3339 41.8526 37.9968C40.0278 36.5683 37.9138 36.0598 35.8997 36.5657C33.8859 37.0714 32.2626 38.5181 31.3291 40.6393C30.4554 42.6247 30.2937 44.9903 30.8737 47.3003C31.4537 49.6103 32.714 51.6188 34.4219 52.956Z" fill="white"/>
</svg>
