<svg width="15" height="14" viewBox="0 0 15 14" fill="none" xmlns="http://www.w3.org/2000/svg">
<path d="M6.99119 2.58906C7.36233 3.72897 6.99119 4.8954 6.11637 5.1605C5.26806 5.4521 4.26069 4.76285 3.88956 3.62293C3.51842 2.48302 3.88956 1.31659 4.76438 1.05149C5.61269 0.759886 6.62006 1.44914 6.99119 2.58906ZM3.65097 5.39908C4.15465 6.24739 4.02211 7.25476 3.38587 7.6259C2.72313 7.99703 1.79529 7.59939 1.29161 6.75108C0.787922 5.87626 0.920471 4.8954 1.5567 4.52426C2.21945 4.15313 3.14729 4.55077 3.65097 5.39908ZM2.82917 10.7806C4.20767 7.01618 6.67308 6.06183 7.78648 6.06183C8.87338 6.06183 11.3388 7.01618 12.7173 10.7806C12.8233 11.0191 12.8763 11.3107 12.8763 11.5758V11.6289C12.8763 12.3181 12.3196 12.8483 11.6304 12.8483C11.3123 12.8483 11.0207 12.8218 10.7291 12.7423L8.39621 12.1591C7.99856 12.053 7.57441 12.053 7.15025 12.1591L4.8174 12.7423C4.52579 12.8218 4.23418 12.8483 3.91607 12.8483C3.22681 12.8483 2.69662 12.3181 2.69662 11.6289V11.5758C2.69662 11.3107 2.72313 11.0191 2.82917 10.7806ZM12.1606 7.6259C11.5244 7.25476 11.3918 6.24739 11.8955 5.39908C12.3992 4.55077 13.327 4.15313 13.9898 4.52426C14.626 4.8954 14.7585 5.87626 14.2549 6.75108C13.7512 7.59939 12.8233 7.99703 12.1606 7.6259ZM9.21801 5.1605C8.34319 4.8954 7.97205 3.72897 8.34319 2.58906C8.71432 1.44914 9.72169 0.759886 10.57 1.05149C11.4448 1.31659 11.816 2.48302 11.4448 3.62293C11.0737 4.76285 10.0663 5.4521 9.21801 5.1605Z" fill="white"/>
</svg>
