<svg width="95" height="115" viewBox="0 0 95 115" fill="none" xmlns="http://www.w3.org/2000/svg">
<path d="M94.875 11.5L86.25 0H74.75V11.5H94.875Z" fill="#004E42"/>
<path d="M0 0H86.25V103.227C86.25 108.168 80.6746 111.051 76.6427 108.195L50.1632 89.4385C45.9464 86.4516 40.3036 86.4516 36.0868 89.4385L9.60734 108.195C5.57536 111.051 0 108.168 0 103.227V0Z" fill="#00947C"/>
<g clip-path="url(#clip0_576_5605)">
<mask id="mask0_576_5605" style="mask-type:luminance" maskUnits="userSpaceOnUse" x="23" y="28" width="41" height="41">
<path d="M23 28.75H63.25V69H23V28.75Z" fill="white"/>
</mask>
<g mask="url(#mask0_576_5605)">
<path fill-rule="evenodd" clip-rule="evenodd" d="M35.6797 66.0174C36.6457 66.4776 37.7021 66.7166 38.7721 66.7166H54.1422C57.6831 66.7166 60.6963 64.1377 61.2435 60.6394L63.0426 49.1299C63.5877 45.6425 60.8916 42.4918 57.3616 42.4918H47.921V35.7136C47.921 33.133 45.829 31.041 43.2484 31.041C41.557 31.041 39.9977 31.955 39.1714 33.4308L33.199 44.0973C32.8386 44.741 32.6493 45.4664 32.6493 46.2041V61.8512C32.6493 63.5138 33.6053 65.0286 35.1064 65.7439L35.6797 66.0174ZM25.9993 44.6241C25.2396 44.6241 24.511 44.9259 23.9738 45.4631C23.4366 46.0003 23.1348 46.7289 23.1348 47.4886L23.1348 62.1873C23.1348 62.9471 23.4366 63.6757 23.9738 64.213C24.511 64.7501 25.2396 65.0519 25.9993 65.0519L27.4269 65.0514C28.2206 65.0511 28.8638 64.4074 28.8638 63.6139V46.061C28.8638 45.6796 28.7123 45.3139 28.4426 45.0443C28.1728 44.7747 27.807 44.6233 27.4257 44.6235L25.9993 44.6241Z" fill="white"/>
</g>
</g>
<defs>
<clipPath id="clip0_576_5605">
<rect width="40.25" height="40.25" fill="white" transform="translate(23 28.75)"/>
</clipPath>
</defs>
</svg>
